<mxfile host="app.diagrams.net" agent="Mozilla/5.0 (Windows NT 10.0; Win64; x64) AppleWebKit/537.36 (KHTML, like Gecko) Chrome/130.0.0.0 Safari/537.36" version="24.8.3" pages="2">
  <diagram id="C5RBs43oDa-KdzZeNtuy" name="Page-1">
    <mxGraphModel dx="794" dy="553" grid="1" gridSize="10" guides="1" tooltips="1" connect="1" arrows="1" fold="1" page="1" pageScale="1" pageWidth="827" pageHeight="1169" math="0" shadow="0">
      <root>
        <mxCell id="WIyWlLk6GJQsqaUBKTNV-0" />
        <mxCell id="WIyWlLk6GJQsqaUBKTNV-1" parent="WIyWlLk6GJQsqaUBKTNV-0" />
        <mxCell id="3-kQ13Le2JaHbYgNw9sz-0" value="Key Findings" style="whiteSpace=wrap;strokeWidth=2;verticalAlign=top;fillColor=#dae8fc;strokeColor=#6c8ebf;" vertex="1" parent="WIyWlLk6GJQsqaUBKTNV-1">
          <mxGeometry x="671" y="1540" width="317" height="270" as="geometry" />
        </mxCell>
        <mxCell id="3-kQ13Le2JaHbYgNw9sz-1" value="Spatial Clusters of Vulnerability" style="whiteSpace=wrap;strokeWidth=2;" vertex="1" parent="3-kQ13Le2JaHbYgNw9sz-0">
          <mxGeometry x="71" y="33.07692307692308" width="191" height="50.76923076923078" as="geometry" />
        </mxCell>
        <mxCell id="3-kQ13Le2JaHbYgNw9sz-2" value="North-South Vulnerability Divide" style="whiteSpace=wrap;strokeWidth=2;" vertex="1" parent="3-kQ13Le2JaHbYgNw9sz-0">
          <mxGeometry x="45.5" y="100" width="242" height="50.76923076923078" as="geometry" />
        </mxCell>
        <mxCell id="3-kQ13Le2JaHbYgNw9sz-3" value="Township Area Hotspots" style="whiteSpace=wrap;strokeWidth=2;" vertex="1" parent="3-kQ13Le2JaHbYgNw9sz-0">
          <mxGeometry x="57.5" y="176.9230769230769" width="230" height="37.69230769230769" as="geometry" />
        </mxCell>
        <mxCell id="3-kQ13Le2JaHbYgNw9sz-4" value="Variables Considered" style="whiteSpace=wrap;strokeWidth=2;verticalAlign=top;fillColor=#dae8fc;strokeColor=#6c8ebf;" vertex="1" parent="WIyWlLk6GJQsqaUBKTNV-1">
          <mxGeometry x="540" y="550" width="310" height="316" as="geometry" />
        </mxCell>
        <mxCell id="3-kQ13Le2JaHbYgNw9sz-5" value="Environmental Factors" style="whiteSpace=wrap;strokeWidth=2;" vertex="1" parent="3-kQ13Le2JaHbYgNw9sz-4">
          <mxGeometry x="53" y="80" width="221" height="49" as="geometry" />
        </mxCell>
        <mxCell id="3-kQ13Le2JaHbYgNw9sz-6" value="Health Indicators" style="whiteSpace=wrap;strokeWidth=2;" vertex="1" parent="3-kQ13Le2JaHbYgNw9sz-4">
          <mxGeometry x="72" y="150" width="183" height="49" as="geometry" />
        </mxCell>
        <mxCell id="3-kQ13Le2JaHbYgNw9sz-7" value="Socioeconomic Variables" style="whiteSpace=wrap;strokeWidth=2;" vertex="1" parent="3-kQ13Le2JaHbYgNw9sz-4">
          <mxGeometry x="46" y="220" width="235" height="49" as="geometry" />
        </mxCell>
        <mxCell id="3-kQ13Le2JaHbYgNw9sz-8" value="Data Collection" style="whiteSpace=wrap;strokeWidth=2;fillColor=#dae8fc;strokeColor=#6c8ebf;" vertex="1" parent="WIyWlLk6GJQsqaUBKTNV-1">
          <mxGeometry x="887" y="641" width="170" height="49" as="geometry" />
        </mxCell>
        <mxCell id="3-kQ13Le2JaHbYgNw9sz-9" value="Data Preprocessing" style="whiteSpace=wrap;strokeWidth=2;fillColor=#dae8fc;strokeColor=#6c8ebf;" vertex="1" parent="WIyWlLk6GJQsqaUBKTNV-1">
          <mxGeometry x="875" y="891" width="196" height="49" as="geometry" />
        </mxCell>
        <mxCell id="3-kQ13Le2JaHbYgNw9sz-10" value="Vulnerability Analysis" style="whiteSpace=wrap;strokeWidth=2;fillColor=#dae8fc;strokeColor=#6c8ebf;" vertex="1" parent="WIyWlLk6GJQsqaUBKTNV-1">
          <mxGeometry x="737" y="990" width="212" height="49" as="geometry" />
        </mxCell>
        <mxCell id="3-kQ13Le2JaHbYgNw9sz-11" value="Spatial Analysis" style="whiteSpace=wrap;strokeWidth=2;fillColor=#dae8fc;strokeColor=#6c8ebf;" vertex="1" parent="WIyWlLk6GJQsqaUBKTNV-1">
          <mxGeometry x="1251" y="1097" width="170" height="49" as="geometry" />
        </mxCell>
        <mxCell id="3-kQ13Le2JaHbYgNw9sz-12" value="Principal Component Analysis" style="whiteSpace=wrap;strokeWidth=2;fillColor=#dae8fc;strokeColor=#6c8ebf;" vertex="1" parent="WIyWlLk6GJQsqaUBKTNV-1">
          <mxGeometry x="611" y="1089" width="209" height="66" as="geometry" />
        </mxCell>
        <mxCell id="3-kQ13Le2JaHbYgNw9sz-13" value="Heat Vulnerability Index Creation" style="whiteSpace=wrap;strokeWidth=2;fillColor=#dae8fc;strokeColor=#6c8ebf;" vertex="1" parent="WIyWlLk6GJQsqaUBKTNV-1">
          <mxGeometry x="391" y="1205" width="234" height="66" as="geometry" />
        </mxCell>
        <mxCell id="3-kQ13Le2JaHbYgNw9sz-14" value="Correlation Analysis" style="whiteSpace=wrap;strokeWidth=2;fillColor=#dae8fc;strokeColor=#6c8ebf;" vertex="1" parent="WIyWlLk6GJQsqaUBKTNV-1">
          <mxGeometry x="870" y="1097" width="202" height="49" as="geometry" />
        </mxCell>
        <mxCell id="3-kQ13Le2JaHbYgNw9sz-15" value="Local Moran&#39;s I" style="whiteSpace=wrap;strokeWidth=2;fillColor=#dae8fc;strokeColor=#6c8ebf;" vertex="1" parent="WIyWlLk6GJQsqaUBKTNV-1">
          <mxGeometry x="876" y="1214" width="204" height="49" as="geometry" />
        </mxCell>
        <mxCell id="3-kQ13Le2JaHbYgNw9sz-16" value="LISA Clustering" style="whiteSpace=wrap;strokeWidth=2;fillColor=#dae8fc;strokeColor=#6c8ebf;" vertex="1" parent="WIyWlLk6GJQsqaUBKTNV-1">
          <mxGeometry x="1130" y="1214" width="166" height="49" as="geometry" />
        </mxCell>
        <mxCell id="3-kQ13Le2JaHbYgNw9sz-17" value="Spatial Pattern Analysis" style="whiteSpace=wrap;strokeWidth=2;fillColor=#dae8fc;strokeColor=#6c8ebf;" vertex="1" parent="WIyWlLk6GJQsqaUBKTNV-1">
          <mxGeometry x="1345" y="1214" width="228" height="49" as="geometry" />
        </mxCell>
        <mxCell id="3-kQ13Le2JaHbYgNw9sz-18" value="Results Integration" style="whiteSpace=wrap;strokeWidth=2;fillColor=#dae8fc;strokeColor=#6c8ebf;" vertex="1" parent="WIyWlLk6GJQsqaUBKTNV-1">
          <mxGeometry x="862" y="1321" width="194" height="49" as="geometry" />
        </mxCell>
        <mxCell id="3-kQ13Le2JaHbYgNw9sz-19" value="High-Risk Areas Identification" style="whiteSpace=wrap;strokeWidth=2;fillColor=#dae8fc;strokeColor=#6c8ebf;" vertex="1" parent="WIyWlLk6GJQsqaUBKTNV-1">
          <mxGeometry x="509" y="1420" width="169" height="66" as="geometry" />
        </mxCell>
        <mxCell id="3-kQ13Le2JaHbYgNw9sz-20" value="Vulnerability Pattern Recognition" style="whiteSpace=wrap;strokeWidth=2;fillColor=#dae8fc;strokeColor=#6c8ebf;" vertex="1" parent="WIyWlLk6GJQsqaUBKTNV-1">
          <mxGeometry x="729" y="1420" width="209" height="66" as="geometry" />
        </mxCell>
        <mxCell id="3-kQ13Le2JaHbYgNw9sz-21" value="Policy Implications" style="whiteSpace=wrap;strokeWidth=2;fillColor=#dae8fc;strokeColor=#6c8ebf;" vertex="1" parent="WIyWlLk6GJQsqaUBKTNV-1">
          <mxGeometry x="988" y="1429" width="194" height="49" as="geometry" />
        </mxCell>
        <mxCell id="3-kQ13Le2JaHbYgNw9sz-22" value="" style="curved=1;startArrow=none;endArrow=block;exitX=0.5;exitY=1;entryX=0.5;entryY=0;rounded=0;fillColor=#dae8fc;strokeColor=#6c8ebf;" edge="1" parent="WIyWlLk6GJQsqaUBKTNV-1" source="3-kQ13Le2JaHbYgNw9sz-8" target="3-kQ13Le2JaHbYgNw9sz-9">
          <mxGeometry relative="1" as="geometry">
            <Array as="points" />
          </mxGeometry>
        </mxCell>
        <mxCell id="3-kQ13Le2JaHbYgNw9sz-23" value="" style="curved=1;startArrow=none;endArrow=block;exitX=0.17;exitY=1;entryX=0.5;entryY=0;rounded=0;fillColor=#dae8fc;strokeColor=#6c8ebf;" edge="1" parent="WIyWlLk6GJQsqaUBKTNV-1" source="3-kQ13Le2JaHbYgNw9sz-9" target="3-kQ13Le2JaHbYgNw9sz-10">
          <mxGeometry relative="1" as="geometry">
            <Array as="points">
              <mxPoint x="843" y="965" />
            </Array>
          </mxGeometry>
        </mxCell>
        <mxCell id="3-kQ13Le2JaHbYgNw9sz-24" value="" style="curved=1;startArrow=none;endArrow=block;exitX=1;exitY=0.77;entryX=0.5;entryY=0.01;rounded=0;fillColor=#dae8fc;strokeColor=#6c8ebf;" edge="1" parent="WIyWlLk6GJQsqaUBKTNV-1" source="3-kQ13Le2JaHbYgNw9sz-9" target="3-kQ13Le2JaHbYgNw9sz-11">
          <mxGeometry relative="1" as="geometry">
            <Array as="points">
              <mxPoint x="1336" y="965" />
            </Array>
          </mxGeometry>
        </mxCell>
        <mxCell id="3-kQ13Le2JaHbYgNw9sz-25" value="" style="curved=1;startArrow=none;endArrow=block;exitX=0.2;exitY=0.99;entryX=0.5;entryY=-0.01;rounded=0;fillColor=#dae8fc;strokeColor=#6c8ebf;" edge="1" parent="WIyWlLk6GJQsqaUBKTNV-1" source="3-kQ13Le2JaHbYgNw9sz-10" target="3-kQ13Le2JaHbYgNw9sz-12">
          <mxGeometry relative="1" as="geometry">
            <Array as="points">
              <mxPoint x="715" y="1064" />
            </Array>
          </mxGeometry>
        </mxCell>
        <mxCell id="3-kQ13Le2JaHbYgNw9sz-26" value="" style="curved=1;startArrow=none;endArrow=block;exitX=0;exitY=0.76;entryX=0.33;entryY=0;rounded=0;fillColor=#dae8fc;strokeColor=#6c8ebf;" edge="1" parent="WIyWlLk6GJQsqaUBKTNV-1" source="3-kQ13Le2JaHbYgNw9sz-10" target="3-kQ13Le2JaHbYgNw9sz-13">
          <mxGeometry relative="1" as="geometry">
            <Array as="points">
              <mxPoint x="438" y="1064" />
              <mxPoint x="438" y="1180" />
            </Array>
          </mxGeometry>
        </mxCell>
        <mxCell id="3-kQ13Le2JaHbYgNw9sz-27" value="" style="curved=1;startArrow=none;endArrow=block;exitX=0.8;exitY=0.99;entryX=0.5;entryY=0.01;rounded=0;fillColor=#dae8fc;strokeColor=#6c8ebf;" edge="1" parent="WIyWlLk6GJQsqaUBKTNV-1" source="3-kQ13Le2JaHbYgNw9sz-10" target="3-kQ13Le2JaHbYgNw9sz-14">
          <mxGeometry relative="1" as="geometry">
            <Array as="points">
              <mxPoint x="970" y="1064" />
            </Array>
          </mxGeometry>
        </mxCell>
        <mxCell id="3-kQ13Le2JaHbYgNw9sz-28" value="" style="curved=1;startArrow=none;endArrow=block;exitX=0.5;exitY=1;entryX=1;entryY=0;rounded=0;fillColor=#dae8fc;strokeColor=#6c8ebf;" edge="1" parent="WIyWlLk6GJQsqaUBKTNV-1" source="3-kQ13Le2JaHbYgNw9sz-12" target="3-kQ13Le2JaHbYgNw9sz-13">
          <mxGeometry relative="1" as="geometry">
            <Array as="points">
              <mxPoint x="715" y="1180" />
            </Array>
          </mxGeometry>
        </mxCell>
        <mxCell id="3-kQ13Le2JaHbYgNw9sz-29" value="" style="curved=1;startArrow=none;endArrow=block;exitX=0;exitY=0.78;entryX=0.5;entryY=-0.01;rounded=0;fillColor=#dae8fc;strokeColor=#6c8ebf;" edge="1" parent="WIyWlLk6GJQsqaUBKTNV-1" source="3-kQ13Le2JaHbYgNw9sz-11" target="3-kQ13Le2JaHbYgNw9sz-15">
          <mxGeometry relative="1" as="geometry">
            <Array as="points">
              <mxPoint x="978" y="1180" />
            </Array>
          </mxGeometry>
        </mxCell>
        <mxCell id="3-kQ13Le2JaHbYgNw9sz-30" value="" style="curved=1;startArrow=none;endArrow=block;exitX=0.2;exitY=1;entryX=0.5;entryY=-0.01;rounded=0;fillColor=#dae8fc;strokeColor=#6c8ebf;" edge="1" parent="WIyWlLk6GJQsqaUBKTNV-1" source="3-kQ13Le2JaHbYgNw9sz-11" target="3-kQ13Le2JaHbYgNw9sz-16">
          <mxGeometry relative="1" as="geometry">
            <Array as="points">
              <mxPoint x="1212" y="1180" />
            </Array>
          </mxGeometry>
        </mxCell>
        <mxCell id="3-kQ13Le2JaHbYgNw9sz-31" value="" style="curved=1;startArrow=none;endArrow=block;exitX=0.8;exitY=1;entryX=0.5;entryY=-0.01;rounded=0;fillColor=#dae8fc;strokeColor=#6c8ebf;" edge="1" parent="WIyWlLk6GJQsqaUBKTNV-1" source="3-kQ13Le2JaHbYgNw9sz-11" target="3-kQ13Le2JaHbYgNw9sz-17">
          <mxGeometry relative="1" as="geometry">
            <Array as="points">
              <mxPoint x="1459" y="1180" />
            </Array>
          </mxGeometry>
        </mxCell>
        <mxCell id="3-kQ13Le2JaHbYgNw9sz-32" value="" style="curved=1;startArrow=none;endArrow=block;exitX=0.5;exitY=1;entryX=0;entryY=0.28;rounded=0;fillColor=#dae8fc;strokeColor=#6c8ebf;" edge="1" parent="WIyWlLk6GJQsqaUBKTNV-1" source="3-kQ13Le2JaHbYgNw9sz-13" target="3-kQ13Le2JaHbYgNw9sz-18">
          <mxGeometry relative="1" as="geometry">
            <Array as="points">
              <mxPoint x="508" y="1296" />
            </Array>
          </mxGeometry>
        </mxCell>
        <mxCell id="3-kQ13Le2JaHbYgNw9sz-33" value="" style="curved=1;startArrow=none;endArrow=block;exitX=0.5;exitY=0.99;entryX=1;entryY=0.11;rounded=0;fillColor=#dae8fc;strokeColor=#6c8ebf;" edge="1" parent="WIyWlLk6GJQsqaUBKTNV-1" source="3-kQ13Le2JaHbYgNw9sz-16" target="3-kQ13Le2JaHbYgNw9sz-18">
          <mxGeometry relative="1" as="geometry">
            <Array as="points">
              <mxPoint x="1212" y="1296" />
            </Array>
          </mxGeometry>
        </mxCell>
        <mxCell id="3-kQ13Le2JaHbYgNw9sz-34" value="" style="curved=1;startArrow=none;endArrow=block;exitX=0;exitY=0.77;entryX=0.5;entryY=0;rounded=0;fillColor=#dae8fc;strokeColor=#6c8ebf;" edge="1" parent="WIyWlLk6GJQsqaUBKTNV-1" source="3-kQ13Le2JaHbYgNw9sz-18" target="3-kQ13Le2JaHbYgNw9sz-19">
          <mxGeometry relative="1" as="geometry">
            <Array as="points">
              <mxPoint x="594" y="1395" />
            </Array>
          </mxGeometry>
        </mxCell>
        <mxCell id="3-kQ13Le2JaHbYgNw9sz-35" value="" style="curved=1;startArrow=none;endArrow=block;exitX=0.18;exitY=0.99;entryX=0.5;entryY=0;rounded=0;fillColor=#dae8fc;strokeColor=#6c8ebf;" edge="1" parent="WIyWlLk6GJQsqaUBKTNV-1" source="3-kQ13Le2JaHbYgNw9sz-18" target="3-kQ13Le2JaHbYgNw9sz-20">
          <mxGeometry relative="1" as="geometry">
            <Array as="points">
              <mxPoint x="834" y="1395" />
            </Array>
          </mxGeometry>
        </mxCell>
        <mxCell id="3-kQ13Le2JaHbYgNw9sz-36" value="" style="curved=1;startArrow=none;endArrow=block;exitX=0.82;exitY=0.99;entryX=0.5;entryY=-0.01;rounded=0;fillColor=#dae8fc;strokeColor=#6c8ebf;" edge="1" parent="WIyWlLk6GJQsqaUBKTNV-1" source="3-kQ13Le2JaHbYgNw9sz-18" target="3-kQ13Le2JaHbYgNw9sz-21">
          <mxGeometry relative="1" as="geometry">
            <Array as="points">
              <mxPoint x="1085" y="1395" />
            </Array>
          </mxGeometry>
        </mxCell>
      </root>
    </mxGraphModel>
  </diagram>
  <diagram id="90JLG7LxlQydikTZOsEg" name="Page-2">
    <mxGraphModel dx="794" dy="553" grid="1" gridSize="11" guides="1" tooltips="1" connect="1" arrows="1" fold="1" page="1" pageScale="1" pageWidth="827" pageHeight="1169" math="0" shadow="0">
      <root>
        <mxCell id="0" />
        <mxCell id="1" parent="0" />
        <mxCell id="Ujv-txaNqrxuxrdpKOCu-1" value="Key Findings" style="whiteSpace=wrap;strokeWidth=2;verticalAlign=top;fillColor=#e1d5e7;strokeColor=#9673a6;dashed=1;align=left;" vertex="1" parent="1">
          <mxGeometry x="671" y="891" width="286" height="165" as="geometry" />
        </mxCell>
        <mxCell id="Ujv-txaNqrxuxrdpKOCu-2" value="Spatial Clusters Identified" style="whiteSpace=wrap;strokeWidth=2;" vertex="1" parent="Ujv-txaNqrxuxrdpKOCu-1">
          <mxGeometry x="42.37037037037037" y="22.5" width="211.85185185185185" height="22.5" as="geometry" />
        </mxCell>
        <mxCell id="Ujv-txaNqrxuxrdpKOCu-3" value="Vulnerability Patterns" style="whiteSpace=wrap;strokeWidth=2;" vertex="1" parent="Ujv-txaNqrxuxrdpKOCu-1">
          <mxGeometry x="42.37037037037037" y="67.94117647058823" width="190.66666666666666" height="22.5" as="geometry" />
        </mxCell>
        <mxCell id="Ujv-txaNqrxuxrdpKOCu-4" value="Policy Recommendations" style="whiteSpace=wrap;strokeWidth=2;" vertex="1" parent="Ujv-txaNqrxuxrdpKOCu-1">
          <mxGeometry x="42.37037037037037" y="106.76470588235294" width="211.85185185185185" height="22.5" as="geometry" />
        </mxCell>
        <mxCell id="Ujv-txaNqrxuxrdpKOCu-5" value="Input Variables" style="whiteSpace=wrap;strokeWidth=2;verticalAlign=top;fillColor=#fff2cc;strokeColor=#d6b656;dashed=1;align=left;" vertex="1" parent="1">
          <mxGeometry x="407" y="165" width="264" height="310" as="geometry" />
        </mxCell>
        <mxCell id="Ujv-txaNqrxuxrdpKOCu-6" value="Environmental Factors" style="whiteSpace=wrap;strokeWidth=2;" vertex="1" parent="Ujv-txaNqrxuxrdpKOCu-5">
          <mxGeometry x="41.48571428571429" y="65.99872909698996" width="186.68571428571428" height="45.618729096989966" as="geometry" />
        </mxCell>
        <mxCell id="Ujv-txaNqrxuxrdpKOCu-7" value="Health Indicators" style="whiteSpace=wrap;strokeWidth=2;" vertex="1" parent="Ujv-txaNqrxuxrdpKOCu-5">
          <mxGeometry x="41.48571428571429" y="136.8561872909699" width="155.57142857142856" height="45.618729096989966" as="geometry" />
        </mxCell>
        <mxCell id="Ujv-txaNqrxuxrdpKOCu-8" value="Socioeconomic Variables" style="whiteSpace=wrap;strokeWidth=2;" vertex="1" parent="Ujv-txaNqrxuxrdpKOCu-5">
          <mxGeometry x="41.48571428571429" y="208.9983277591973" width="197.05714285714285" height="45.618729096989966" as="geometry" />
        </mxCell>
        <mxCell id="Ujv-txaNqrxuxrdpKOCu-9" value="Main Analysis Streams" style="whiteSpace=wrap;strokeWidth=2;fillColor=#dae8fc;strokeColor=#6c8ebf;dashed=1;align=left;verticalAlign=top;" vertex="1" parent="1">
          <mxGeometry x="407" y="495" width="869" height="363" as="geometry" />
        </mxCell>
        <mxCell id="Ujv-txaNqrxuxrdpKOCu-10" value="Spatial Analysis" style="whiteSpace=wrap;strokeWidth=2;verticalAlign=top;fillColor=#ffe6cc;strokeColor=#d79b00;dashed=1;" vertex="1" parent="1">
          <mxGeometry x="913" y="517" width="308" height="319" as="geometry" />
        </mxCell>
        <mxCell id="Ujv-txaNqrxuxrdpKOCu-11" value="Local Moran&#39;s I" style="whiteSpace=wrap;strokeWidth=2;" vertex="1" parent="Ujv-txaNqrxuxrdpKOCu-10">
          <mxGeometry x="55" y="44" width="209" height="44" as="geometry" />
        </mxCell>
        <mxCell id="Ujv-txaNqrxuxrdpKOCu-12" value="LISA Clustering" style="whiteSpace=wrap;strokeWidth=2;" vertex="1" parent="Ujv-txaNqrxuxrdpKOCu-10">
          <mxGeometry x="77" y="121" width="165" height="44" as="geometry" />
        </mxCell>
        <mxCell id="Ujv-txaNqrxuxrdpKOCu-13" value="Spatial Pattern Analysis" style="whiteSpace=wrap;strokeWidth=2;" vertex="1" parent="Ujv-txaNqrxuxrdpKOCu-10">
          <mxGeometry x="44" y="198" width="231" height="44" as="geometry" />
        </mxCell>
        <mxCell id="Ujv-txaNqrxuxrdpKOCu-14" value="Vulnerability Analysis" style="whiteSpace=wrap;strokeWidth=2;verticalAlign=top;fillColor=#d5e8d4;strokeColor=#82b366;dashed=1;" vertex="1" parent="1">
          <mxGeometry x="451" y="539" width="363" height="231" as="geometry" />
        </mxCell>
        <mxCell id="Ujv-txaNqrxuxrdpKOCu-15" value="Principal Component &#xa;Analysis" style="whiteSpace=wrap;strokeWidth=2;" vertex="1" parent="Ujv-txaNqrxuxrdpKOCu-14">
          <mxGeometry x="44" y="44" width="132" height="66" as="geometry" />
        </mxCell>
        <mxCell id="Ujv-txaNqrxuxrdpKOCu-16" value="Heat Vulnerability &#xa;Index Creation" style="whiteSpace=wrap;strokeWidth=2;" vertex="1" parent="Ujv-txaNqrxuxrdpKOCu-14">
          <mxGeometry x="198" y="44" width="143" height="66" as="geometry" />
        </mxCell>
        <mxCell id="Ujv-txaNqrxuxrdpKOCu-17" value="Correlation Analysis" style="whiteSpace=wrap;strokeWidth=2;" vertex="1" parent="Ujv-txaNqrxuxrdpKOCu-14">
          <mxGeometry x="143" y="143" width="121" height="44" as="geometry" />
        </mxCell>
        <mxCell id="Ujv-txaNqrxuxrdpKOCu-18" value="" style="curved=1;startArrow=none;endArrow=block;exitX=1;exitY=0.5;entryX=0;entryY=0.5;rounded=0;" edge="1" parent="Ujv-txaNqrxuxrdpKOCu-14" source="Ujv-txaNqrxuxrdpKOCu-15" target="Ujv-txaNqrxuxrdpKOCu-16">
          <mxGeometry relative="1" as="geometry">
            <Array as="points" />
          </mxGeometry>
        </mxCell>
        <mxCell id="Ujv-txaNqrxuxrdpKOCu-19" value="Data Preparation" style="whiteSpace=wrap;strokeWidth=2;fillColor=#f5f5f5;strokeColor=#666666;dashed=1;fontColor=#333333;align=left;verticalAlign=top;" vertex="1" parent="1">
          <mxGeometry x="693" y="165" width="583" height="308" as="geometry" />
        </mxCell>
        <mxCell id="Ujv-txaNqrxuxrdpKOCu-20" value="Data Collection" style="whiteSpace=wrap;strokeWidth=2;fillColor=#dae8fc;strokeColor=#6c8ebf;dashed=1;" vertex="1" parent="1">
          <mxGeometry x="775.5" y="220" width="165" height="44" as="geometry" />
        </mxCell>
        <mxCell id="Ujv-txaNqrxuxrdpKOCu-34" style="edgeStyle=orthogonalEdgeStyle;rounded=0;orthogonalLoop=1;jettySize=auto;html=1;exitX=1;exitY=0.5;exitDx=0;exitDy=0;entryX=0;entryY=0.5;entryDx=0;entryDy=0;curved=1;fillColor=#dae8fc;strokeColor=#6c8ebf;dashed=1;strokeWidth=2;" edge="1" parent="1" source="Ujv-txaNqrxuxrdpKOCu-21" target="Ujv-txaNqrxuxrdpKOCu-22">
          <mxGeometry relative="1" as="geometry" />
        </mxCell>
        <mxCell id="Ujv-txaNqrxuxrdpKOCu-37" style="edgeStyle=orthogonalEdgeStyle;rounded=0;orthogonalLoop=1;jettySize=auto;html=1;curved=1;strokeWidth=2;fillColor=#dae8fc;strokeColor=#6c8ebf;dashed=1;" edge="1" parent="1" source="Ujv-txaNqrxuxrdpKOCu-21" target="Ujv-txaNqrxuxrdpKOCu-14">
          <mxGeometry relative="1" as="geometry" />
        </mxCell>
        <mxCell id="Ujv-txaNqrxuxrdpKOCu-21" value="Data Preprocessing" style="whiteSpace=wrap;strokeWidth=2;fillColor=#dae8fc;strokeColor=#6c8ebf;dashed=1;" vertex="1" parent="1">
          <mxGeometry x="759" y="330" width="198" height="77" as="geometry" />
        </mxCell>
        <mxCell id="Ujv-txaNqrxuxrdpKOCu-35" value="" style="edgeStyle=orthogonalEdgeStyle;rounded=0;orthogonalLoop=1;jettySize=auto;html=1;strokeWidth=2;dashed=1;fillColor=#dae8fc;strokeColor=#6c8ebf;" edge="1" parent="1" source="Ujv-txaNqrxuxrdpKOCu-22" target="Ujv-txaNqrxuxrdpKOCu-23">
          <mxGeometry relative="1" as="geometry" />
        </mxCell>
        <mxCell id="Ujv-txaNqrxuxrdpKOCu-22" value="Variable Standardization" style="whiteSpace=wrap;strokeWidth=2;fillColor=#dae8fc;strokeColor=#6c8ebf;dashed=1;" vertex="1" parent="1">
          <mxGeometry x="1034" y="253" width="220" height="55" as="geometry" />
        </mxCell>
        <mxCell id="Ujv-txaNqrxuxrdpKOCu-36" value="" style="edgeStyle=orthogonalEdgeStyle;rounded=0;orthogonalLoop=1;jettySize=auto;html=1;strokeWidth=2;curved=1;fillColor=#dae8fc;strokeColor=#6c8ebf;dashed=1;" edge="1" parent="1" source="Ujv-txaNqrxuxrdpKOCu-23" target="Ujv-txaNqrxuxrdpKOCu-21">
          <mxGeometry relative="1" as="geometry" />
        </mxCell>
        <mxCell id="Ujv-txaNqrxuxrdpKOCu-23" value="Missing Data Handling" style="whiteSpace=wrap;strokeWidth=2;fillColor=#dae8fc;strokeColor=#6c8ebf;dashed=1;" vertex="1" parent="1">
          <mxGeometry x="1034" y="341" width="220" height="44" as="geometry" />
        </mxCell>
        <mxCell id="Ujv-txaNqrxuxrdpKOCu-24" value="" style="curved=1;startArrow=none;endArrow=block;exitX=0.5;exitY=0.99;entryX=0.5;entryY=0;rounded=0;fillColor=#dae8fc;strokeColor=#6c8ebf;dashed=1;strokeWidth=2;" edge="1" parent="1" source="Ujv-txaNqrxuxrdpKOCu-20" target="Ujv-txaNqrxuxrdpKOCu-21">
          <mxGeometry relative="1" as="geometry">
            <Array as="points" />
          </mxGeometry>
        </mxCell>
        <mxCell id="Ujv-txaNqrxuxrdpKOCu-29" value="" style="curved=1;startArrow=none;endArrow=block;exitX=0.5;exitY=1;entryX=0;entryY=0.13;rounded=0;fillColor=#dae8fc;strokeColor=#6c8ebf;dashed=1;strokeWidth=2;" edge="1" parent="1" source="Ujv-txaNqrxuxrdpKOCu-14" target="Ujv-txaNqrxuxrdpKOCu-1">
          <mxGeometry relative="1" as="geometry">
            <Array as="points">
              <mxPoint x="352" y="902" />
            </Array>
          </mxGeometry>
        </mxCell>
        <mxCell id="Ujv-txaNqrxuxrdpKOCu-32" value="" style="endArrow=classic;html=1;rounded=0;exitX=0.689;exitY=0.992;exitDx=0;exitDy=0;exitPerimeter=0;entryX=0.5;entryY=0;entryDx=0;entryDy=0;curved=1;dashed=1;strokeWidth=2;fillColor=#dae8fc;strokeColor=#6c8ebf;" edge="1" parent="1" source="Ujv-txaNqrxuxrdpKOCu-21" target="Ujv-txaNqrxuxrdpKOCu-10">
          <mxGeometry width="50" height="50" relative="1" as="geometry">
            <mxPoint x="1120" y="550" as="sourcePoint" />
            <mxPoint x="1170" y="500" as="targetPoint" />
            <Array as="points">
              <mxPoint x="1023" y="451" />
            </Array>
          </mxGeometry>
        </mxCell>
        <mxCell id="Ujv-txaNqrxuxrdpKOCu-33" value="" style="endArrow=block;html=1;rounded=0;exitX=0.623;exitY=0.988;exitDx=0;exitDy=0;exitPerimeter=0;entryX=1;entryY=0.211;entryDx=0;entryDy=0;entryPerimeter=0;curved=1;dashed=1;endFill=1;strokeWidth=2;fillColor=#dae8fc;strokeColor=#6c8ebf;" edge="1" parent="1" source="Ujv-txaNqrxuxrdpKOCu-10" target="Ujv-txaNqrxuxrdpKOCu-1">
          <mxGeometry width="50" height="50" relative="1" as="geometry">
            <mxPoint x="760" y="860" as="sourcePoint" />
            <mxPoint x="810" y="810" as="targetPoint" />
            <Array as="points">
              <mxPoint x="1111" y="935" />
            </Array>
          </mxGeometry>
        </mxCell>
      </root>
    </mxGraphModel>
  </diagram>
</mxfile>
